<?xml version="1.0" encoding="UTF-8" standalone="no"?>
<svg
   xmlns:dc="http://purl.org/dc/elements/1.1/"
   xmlns:cc="http://creativecommons.org/ns#"
   xmlns:rdf="http://www.w3.org/1999/02/22-rdf-syntax-ns#"
   xmlns:svg="http://www.w3.org/2000/svg"
   xmlns="http://www.w3.org/2000/svg"
   xmlns:sodipodi="http://sodipodi.sourceforge.net/DTD/sodipodi-0.dtd"
   xmlns:inkscape="http://www.inkscape.org/namespaces/inkscape"
   width="240"
   height="39"
   version="1.1"
   id="svg8"
   sodipodi:docname="logo-footer.svg"
   inkscape:version="1.0.1 (3bc2e813f5, 2020-09-07)">
  <metadata
     id="metadata14">
    <rdf:RDF>
      <cc:Work
         rdf:about="">
        <dc:format>image/svg+xml</dc:format>
        <dc:type
           rdf:resource="http://purl.org/dc/dcmitype/StillImage" />
      </cc:Work>
    </rdf:RDF>
  </metadata>
  <defs
     id="defs12" />
  <sodipodi:namedview
     pagecolor="#ffffff"
     bordercolor="#666666"
     borderopacity="1"
     objecttolerance="10"
     gridtolerance="10"
     guidetolerance="10"
     inkscape:pageopacity="0"
     inkscape:pageshadow="2"
     inkscape:window-width="1920"
     inkscape:window-height="1013"
     id="namedview10"
     showgrid="false"
     inkscape:zoom="6.9291667"
     inkscape:cx="194.75256"
     inkscape:cy="19.211365"
     inkscape:window-x="-9"
     inkscape:window-y="-9"
     inkscape:window-maximized="1"
     inkscape:current-layer="g6" />
  <g
     fill-rule="nonzero"
     fill="none"
     id="g6">
    <path
       d="M27.967.879C20.242.875 12.182 2.615 4.047 4.872c-1.033.208-2.041.884-2.574 1.72C.983 7.38.805 8.171.652 9c-.79 4.428-.694 8.776-.53 13.594.036 1.103.2 2.41.715 3.205.538.803 1.46 1.313 2.561 1.48a95.99 95.99 0 0 0 4.232.525l-.312 8.698c-.048.692.29 1.267.71 1.598.376.286.795.413 1.225.445.86.065 1.869-.303 2.37-1.257 2.195-4.224 3.572-6.089 6.317-8.895 7.158.176 13.407-.222 20.482-.745 2.501-.065 4.218-2.11 4.672-3.743 1.357-4.232 1.568-9.456 1.712-14.737.061-2.093-.665-4.148-1.95-5.234-1.222-.991-2.702-1.35-4.058-1.718C35.031 1.363 31.263.905 27.967.879zm10.29 3.31c1.358.369 2.555.724 3.31 1.337 1.26 1.339 1.218 2.23 1.2 3.675-.142 5.122-.388 10.093-1.544 13.86-.498 1.405-1.366 2.405-3.006 2.556-7.208.533-13.462.945-20.707.739a1.032 1.032 0 0 0-.763.302c-3.044 3.074-4.601 5.21-6.921 9.676-.054.102-.171.164-.315.175-.097-.005-.136-.08-.142-.148l.314-9.432c.019-.509-.401-.995-.907-1.05a95.48 95.48 0 0 1-5.06-.62c-.726-.111-.994-.31-1.193-.606-.346-.825-.338-1.335-.365-2.128-.162-4.775-.242-8.948.491-13.1.068-.614.298-1.242.542-1.767.404-.632 1.023-.725 1.644-.897 7.956-2.197 15.74-3.84 23.068-3.845 3.592.13 7.364.49 10.354 1.273zm-27.479 8.09c-1.096 1.313-.987 3.096-.14 4.29.442.625 1.132 1.128 1.972 1.242 1.091.09 1.783-.352 2.53-.86 1.353-1.176 1.49-3.228.461-4.71-.524-.755-1.362-1.208-2.218-1.24-1.172.012-1.968.535-2.605 1.277zm11.856-1.072c-1.092.035-1.975.791-2.514 1.607-.617.933-.977 2.101-.478 3.246.96 2.203 4.277 2.176 5.6-.063.61-1.032.454-2.205 0-3.056-.452-.85-1.136-1.543-2.131-1.702a2.494 2.494 0 0 0-.477-.032zm9.625.207c-.34-.008-.69.024-1.018.111-1.312.35-2.429 1.704-2.26 3.437.086.872.487 1.722 1.21 2.308.723.585 1.773.847 2.88.62 1.272-.26 2.06-1.285 2.323-2.275.263-.99.197-1.999-.414-2.817a3.47 3.47 0 0 0-2.72-1.384zm-18.965 1.623c.245.002.438.08.637.366.445.642.321 1.615-.128 2.005-.447.39-.726.424-.922.398-.196-.027-.395-.162-.573-.414-.34-.48-.44-1.256.007-1.81.238-.316.675-.513.98-.545zm9.483.223c.038.006.464.253.668.636.204.383.242.739.048 1.066-.577.976-1.804.712-1.99.287-.07-.162-.017-.813.32-1.32.335-.509.757-.7.954-.67zm10.564.748c.062.083.213.64.096 1.082-.118.442-.31.715-.78.811-.602.124-.94 0-1.193-.207-.254-.205-.425-.552-.462-.923-.09-.92.24-1.133.764-1.273.61-.15 1.3.112 1.575.51z"
       fill="#FF52C1"
       id="path2" />
    <path
       d="M57.61 4.996c.016-.26.111-.494.287-.701a.875.875 0 0 1 .701-.31h6.826c.23 0 .467.096.712.287a.883.883 0 0 1 .368.724v10.893h11.421V4.996c0-.276.096-.513.287-.712.192-.2.44-.3.747-.3h6.734c.306 0 .574.077.804.23.23.154.345.399.345.736V37.1c0 .337-.1.59-.3.758-.198.169-.459.253-.78.253h-6.803c-.306 0-.555-.084-.747-.253-.191-.168-.287-.42-.287-.758V24.047H66.504V37.1c0 .322-.104.57-.31.747-.207.176-.487.264-.84.264h-6.756c-.643 0-.972-.299-.988-.896V4.996zm62.875 32.725c-.199.168-.41.275-.632.321a3.123 3.123 0 0 1-.631.07h-3.47c-.276 0-.514-.05-.713-.15-.2-.1-.368-.234-.506-.402a2.384 2.384 0 0 1-.344-.575 4.884 4.884 0 0 1-.23-.666l-.712-2.942c-.23.475-.563 1.015-1 1.62a8.495 8.495 0 0 1-1.666 1.7c-.674.53-1.479.974-2.413 1.334-.935.36-2.007.54-3.218.54-1.746 0-3.332-.337-4.757-1.011a10.904 10.904 0 0 1-3.642-2.758c-1.003-1.164-1.781-2.524-2.332-4.08-.552-1.554-.828-3.213-.828-4.974V10.695c0-.582.127-1.022.38-1.321.252-.299.654-.448 1.206-.448h5.308c.66 0 1.111.11 1.356.333.245.222.368.655.368 1.298v14.96c0 .66.15 1.284.448 1.874.299.59.693 1.11 1.184 1.562.49.452 1.045.809 1.666 1.069.62.26 1.252.39 1.896.39.551 0 1.122-.13 1.712-.39a6.361 6.361 0 0 0 1.631-1.046c.498-.436.908-.95 1.23-1.54.322-.59.482-1.214.482-1.872V10.626c0-.26.05-.52.15-.781.1-.26.249-.46.448-.598.199-.122.387-.206.563-.252.176-.046.38-.07.609-.07h5.194c.658 0 1.133.162 1.424.483.291.322.437.751.437 1.287v25.716c0 .29-.065.559-.195.804s-.31.437-.54.574l.137-.068zm26.681-3.172c-.414.414-.87.858-1.367 1.333-.498.475-1.046.92-1.643 1.333a9.3 9.3 0 0 1-1.93 1.023 6.097 6.097 0 0 1-2.23.402c-2.083 0-4.002-.39-5.757-1.172a13.777 13.777 0 0 1-4.527-3.206c-1.264-1.356-2.252-2.953-2.964-4.792-.713-1.838-1.069-3.814-1.069-5.929 0-2.13.356-4.11 1.069-5.94.712-1.83 1.7-3.424 2.964-4.78a13.635 13.635 0 0 1 4.527-3.194c1.755-.774 3.674-1.161 5.757-1.161.843 0 1.613.123 2.31.368a8.51 8.51 0 0 1 1.907.942c.575.383 1.103.816 1.586 1.298.482.483.938.954 1.367 1.414V1.985c0-.49.15-.903.448-1.24.299-.338.747-.506 1.345-.506h5.17c.2 0 .41.042.632.126.222.085.425.203.61.357.183.153.332.337.447.551.115.215.173.452.173.712v34.357c0 1.18-.62 1.77-1.862 1.77h-4.504c-.306 0-.544-.04-.712-.116a1.13 1.13 0 0 1-.426-.333 2.319 2.319 0 0 1-.31-.551 17.13 17.13 0 0 0-.344-.77l-.667-1.793zm-13.214-11.008a8.39 8.39 0 0 0 .471 2.839c.314.88.762 1.643 1.345 2.286a6.384 6.384 0 0 0 2.102 1.528c.82.376 1.728.563 2.724.563.98 0 1.903-.176 2.769-.528a7.058 7.058 0 0 0 2.263-1.46 7.256 7.256 0 0 0 1.552-2.194c.39-.843.609-1.747.655-2.712v-.322a7.26 7.26 0 0 0-.552-2.803 7.427 7.427 0 0 0-1.528-2.344 7.242 7.242 0 0 0-2.298-1.597 6.977 6.977 0 0 0-2.861-.586c-.996 0-1.904.195-2.724.586-.82.39-1.52.923-2.102 1.597a7.236 7.236 0 0 0-1.345 2.344 8.35 8.35 0 0 0-.47 2.803zm48.72 11.008c-.414.414-.87.858-1.368 1.333-.498.475-1.046.92-1.643 1.333a9.3 9.3 0 0 1-1.93 1.023 6.097 6.097 0 0 1-2.23.402c-2.083 0-4.002-.39-5.756-1.172a13.777 13.777 0 0 1-4.528-3.206c-1.263-1.356-2.252-2.953-2.964-4.792-.712-1.838-1.069-3.814-1.069-5.929 0-2.13.357-4.11 1.069-5.94s1.7-3.424 2.964-4.78a13.635 13.635 0 0 1 4.528-3.194c1.754-.774 3.673-1.161 5.756-1.161.843 0 1.613.123 2.31.368a8.51 8.51 0 0 1 1.907.942c.575.383 1.103.816 1.586 1.298.483.483.938.954 1.367 1.414V1.985c0-.49.15-.903.448-1.24.3-.338.747-.506 1.345-.506h5.17c.2 0 .41.042.632.126.223.085.426.203.61.357.183.153.333.337.448.551.114.215.172.452.172.712v34.357c0 1.18-.62 1.77-1.862 1.77h-4.504c-.306 0-.544-.04-.712-.116a1.13 1.13 0 0 1-.425-.333 2.319 2.319 0 0 1-.31-.551 17.13 17.13 0 0 0-.345-.77l-.667-1.793zm-13.215-11.008a8.39 8.39 0 0 0 .471 2.839c.315.88.763 1.643 1.345 2.286a6.384 6.384 0 0 0 2.103 1.528c.82.376 1.727.563 2.723.563.98 0 1.903-.176 2.769-.528a7.058 7.058 0 0 0 2.264-1.46 7.256 7.256 0 0 0 1.55-2.194c.391-.843.61-1.747.656-2.712v-.322a7.26 7.26 0 0 0-.552-2.803 7.427 7.427 0 0 0-1.528-2.344 7.242 7.242 0 0 0-2.298-1.597 6.977 6.977 0 0 0-2.861-.586c-.996 0-1.904.195-2.723.586-.82.39-1.521.923-2.103 1.597a7.236 7.236 0 0 0-1.345 2.344 8.35 8.35 0 0 0-.47 2.803zM197.61 2.008c0-.49.122-.903.367-1.24.246-.338.667-.506 1.264-.506h5.63c.154 0 .315.042.483.126a1.7 1.7 0 0 1 .471.357c.146.153.268.337.368.551.1.215.15.452.15.712v34.334c0 .582-.165 1.022-.495 1.321-.329.299-.754.448-1.275.448h-5.332c-.597 0-1.018-.15-1.264-.448-.245-.299-.367-.74-.367-1.321V2.008zm38.7 32.61a15.31 15.31 0 0 1-4.55 2.907 13.87 13.87 0 0 1-5.355 1.046c-2.1 0-4.083-.383-5.952-1.15a15.494 15.494 0 0 1-4.918-3.182 15.273 15.273 0 0 1-3.355-4.792c-.828-1.838-1.241-3.837-1.241-5.998 0-1.348.164-2.654.494-3.918a15.45 15.45 0 0 1 1.402-3.55 15.055 15.055 0 0 1 2.206-3.045 13.957 13.957 0 0 1 2.907-2.379 14.327 14.327 0 0 1 3.493-1.54 14.084 14.084 0 0 1 3.975-.551c1.272 0 2.505.169 3.7.506 1.195.337 2.318.812 3.367 1.424 1.05.613 2.01 1.349 2.884 2.207a14.896 14.896 0 0 1 2.252 2.815 13.58 13.58 0 0 1 1.46 3.263c.344 1.157.517 2.348.517 3.573 0 .797-.012 1.448-.035 1.954-.023.505-.142.908-.356 1.206-.215.3-.57.506-1.069.62-.498.116-1.23.173-2.194.173h-16.546c.153.98.463 1.8.93 2.46a5.842 5.842 0 0 0 1.62 1.573c.613.391 1.264.67 1.954.84a8.24 8.24 0 0 0 1.953.252c.552 0 1.118-.058 1.7-.172a12.179 12.179 0 0 0 1.69-.46 9.557 9.557 0 0 0 1.493-.667c.452-.252.816-.517 1.092-.792.245-.2.456-.349.632-.449.176-.1.364-.149.563-.149.2 0 .402.07.61.207a4.8 4.8 0 0 1 .7.597l2.436 2.758c.168.2.276.38.322.54.046.161.069.326.069.494 0 .307-.085.571-.253.793a2.89 2.89 0 0 1-.598.586zm-11.054-19.143c-.598 0-1.176.119-1.735.356a6.547 6.547 0 0 0-1.575.954c-.49.398-.93.85-1.321 1.356a8.315 8.315 0 0 0-.954 1.54h11.743a13.536 13.536 0 0 0-1.045-1.655 7.081 7.081 0 0 0-1.287-1.333 5.558 5.558 0 0 0-1.655-.896c-.62-.215-1.344-.322-2.171-.322z"
       fill="#00252E"
       id="path4" />
    <path
       style="fill:#ffffff;stroke:none;stroke-width:0.144317"
       d="M 57.934625,37.756164 C 57.649409,37.470947 57.64599,37.275106 57.64599,21.224643 c 0,-17.5701073 -0.02774,-16.9374571 0.751887,-17.1463014 0.52648,-0.1410315 6.841825,-0.1062835 7.225944,0.039758 0.854966,0.3250577 0.825536,0.1030277 0.825536,6.2280474 v 5.618074 h 5.7727 5.7727 v -5.612394 c 0,-5.3109016 0.01482,-5.630697 0.275884,-5.9530972 l 0.275884,-0.3407024 h 3.849916 3.849916 l 0.275883,0.3407024 c 0.267989,0.3309514 0.275884,0.8064253 0.275884,16.6131302 0,16.243851 -5.77e-4,16.273094 -0.299109,16.652682 l -0.29911,0.380257 h -3.813939 c -3.621516,0 -3.828502,-0.01456 -4.102574,-0.288635 -0.280359,-0.280359 -0.288635,-0.481058 -0.288635,-6.999399 v -6.710764 h -5.7727 -5.7727 v 6.700289 6.700289 l -0.380256,0.29911 c -0.362434,0.285091 -0.555208,0.29911 -4.113049,0.29911 -3.540369,0 -3.747671,-0.01488 -4.021427,-0.288635 z"
       id="path16" />
    <path
       style="fill:#ffffff;stroke-width:0.144317"
       d="m 102.58145,38.271477 c -4.352679,-0.991934 -7.452591,-4.217824 -8.746738,-9.102205 -0.292108,-1.102477 -0.308455,-1.548262 -0.36252,-9.885748 -0.0399,-6.153002 -0.0091,-8.891187 0.104245,-9.272983 0.287203,-0.9672776 0.408148,-0.99376 4.315188,-0.9448632 3.105525,0.038866 3.500025,0.070703 3.730235,0.3010364 0.23956,0.2396792 0.26246,0.8512898 0.3296,8.8033678 l 0.0722,8.545793 0.40704,0.772931 c 1.05742,2.007955 3.45263,3.277246 5.4723,2.899932 1.56854,-0.293035 3.26891,-1.580754 3.96857,-3.005461 l 0.39863,-0.81172 0.0722,-8.298256 c 0.0397,-4.564041 0.12874,-8.4143079 0.19789,-8.5561491 0.29204,-0.5990396 0.78319,-0.6801705 4.11768,-0.6801705 2.06715,0 3.30122,0.057346 3.53599,0.1643137 0.83465,0.3802946 0.80796,-0.097589 0.80238,14.3614059 -0.006,14.340915 0.0331,13.653079 -0.79837,14.201207 -0.37123,0.244722 -0.68911,0.278844 -2.58798,0.277812 -2.30699,-0.0013 -2.65329,-0.08085 -3.12597,-0.718509 -0.1471,-0.198436 -0.46304,-1.140108 -0.70209,-2.092604 -0.23906,-0.952495 -0.45376,-1.792777 -0.47714,-1.867291 -0.0234,-0.07451 -0.29649,0.282671 -0.60695,0.793747 -1.09529,1.803097 -2.78975,3.145528 -4.93387,3.908862 -1.09012,0.388099 -3.89349,0.499288 -5.18244,0.205552 z"
       id="path18" />
    <path
       style="fill:#ffffff;stroke-width:0.144317"
       d="m 138.75242,38.535117 c -3.56557,-0.408742 -6.27098,-1.684598 -8.66696,-4.087288 -1.88019,-1.885449 -3.08327,-4.044661 -3.85224,-6.91374 -0.33694,-1.25715 -0.37402,-1.652996 -0.37402,-3.993199 0,-2.334073 0.0376,-2.73794 0.37051,-3.979378 1.44164,-5.375972 4.94162,-9.085894 9.93471,-10.5306455 1.53234,-0.4433841 4.5199,-0.5563196 5.70046,-0.2154888 1.4097,0.4069822 2.4998,1.0839719 3.90064,2.4224453 0.72689,0.694528 1.36212,1.262778 1.41163,1.262778 0.0495,0 0.09,-2.472098 0.09,-5.4935522 0,-3.7617562 0.0508,-5.5929252 0.1612,-5.8087794 0.40444,-0.79082675 0.51841,-0.81366859 4.07706,-0.81712894 l 3.3002,-0.003209 0.5603,0.56029146 0.56029,0.56029148 V 19.112832 c 0,11.093431 -0.0521,17.75134 -0.14072,17.984441 -0.0774,0.203567 -0.35341,0.499796 -0.61335,0.658284 -0.4278,0.260827 -0.72868,0.288214 -3.1718,0.288702 -1.74464,2.88e-4 -2.82936,-0.05879 -3.06735,-0.167221 -0.38626,-0.175994 -0.80696,-0.949111 -1.37612,-2.528903 l -0.32161,-0.892693 -1.41463,1.253487 c -1.57201,1.392937 -2.68186,2.119727 -3.82769,2.506552 -0.78982,0.266646 -2.35556,0.421084 -3.24052,0.319636 z m 3.59451,-7.928411 c 2.57998,-0.608145 4.76482,-2.760655 5.34087,-5.261847 0.2205,-0.957392 0.18816,-2.848943 -0.0653,-3.822192 -0.89913,-3.451975 -4.59347,-5.884511 -8.03949,-5.293586 -1.43199,0.245561 -2.41779,0.731339 -3.41569,1.683178 -0.9234,0.88077 -1.57735,1.978929 -1.97678,3.319551 -0.34926,1.172217 -0.34926,3.445942 0,4.61816 1.11026,3.726363 4.39668,5.64297 8.15642,4.756736 z"
       id="path20" />
    <path
       style="fill:#ffffff;stroke-width:0.144317"
       d="m 173.80796,38.48149 c -7.64907,-0.963352 -12.89422,-7.597678 -12.49675,-15.806505 0.19167,-3.958394 1.66838,-7.425762 4.27635,-10.041034 1.75507,-1.75998 3.70647,-2.9166053 6.07896,-3.6030845 1.53235,-0.4433841 4.5199,-0.5563196 5.70047,-0.2154888 1.4097,0.4069822 2.49979,1.0839719 3.90063,2.4224453 0.7269,0.694528 1.36213,1.262778 1.41163,1.262778 0.0495,0 0.09,-2.472098 0.09,-5.4935522 0,-3.7617562 0.0508,-5.5929252 0.16121,-5.8087794 0.40443,-0.79082675 0.5184,-0.81366859 4.07706,-0.81712894 l 3.3002,-0.003209 0.56029,0.56029146 0.56029,0.56029148 V 19.112832 c 0,11.093431 -0.0521,17.75134 -0.14072,17.984441 -0.0774,0.203567 -0.3534,0.499796 -0.61335,0.658284 -0.42889,0.261494 -0.72871,0.288213 -3.23967,0.288702 -3.38621,7.21e-4 -3.29936,0.04531 -4.14776,-2.132304 l -0.56284,-1.444634 -1.40793,1.247548 c -2.78149,2.464636 -4.59625,3.133347 -7.50808,2.766621 z m 4.04107,-7.874784 c 2.01709,-0.475461 3.86445,-1.910544 4.73105,-3.675206 0.59624,-1.214119 0.7586,-1.9555 0.76292,-3.483646 0.008,-2.8972 -1.51143,-5.323685 -4.10952,-6.561959 -2.69041,-1.282276 -5.5506,-0.894178 -7.56409,1.026364 -0.92339,0.88077 -1.57734,1.978929 -1.97678,3.319551 -0.34925,1.172217 -0.34925,3.445942 0,4.61816 1.11026,3.726363 4.39668,5.64297 8.15642,4.756736 z"
       id="path22" />
    <path
       style="fill:#ffffff;stroke-width:0.144317"
       d="m 198.42066,37.881614 c -0.74921,-0.363983 -0.71152,0.554113 -0.75454,-18.381614 -0.0362,-15.9159807 -0.0176,-17.6657921 0.19296,-18.2217312 0.12813,-0.33824807 0.35293,-0.67919816 0.49955,-0.7576669 0.15335,-0.0820718 1.66683,-0.14267045 3.56326,-0.14267045 3.66073,0 3.78374,0.0280906 4.16989,0.95228965 0.3089,0.7392881 0.29926,35.0460609 -0.0101,35.7863429 -0.35131,0.840795 -0.76687,0.929684 -4.294,0.918467 -1.72174,-0.0055 -3.20132,-0.07289 -3.36707,-0.153417 z"
       id="path24" />
    <path
       style="fill:#ffffff;stroke-width:0.144317"
       d="m 223.97191,38.32641 c -2.94721,-0.454725 -6.02455,-1.981156 -8.27607,-4.105123 -2.33889,-2.206395 -3.83821,-4.948255 -4.43465,-8.109815 -0.34689,-1.838715 -0.21769,-4.827781 0.28767,-6.655694 1.41269,-5.109774 4.99801,-8.837695 9.96965,-10.3661964 1.21008,-0.3720328 1.47641,-0.3996979 3.89657,-0.4047676 l 2.59772,-0.00544 1.6304,0.5593937 c 2.06286,0.7077734 3.77476,1.7263133 5.30013,3.1534643 3.15999,2.956509 4.54271,6.126703 4.54271,10.415165 0,1.758426 -0.0274,1.958192 -0.32999,2.407884 -0.61193,0.909342 -0.50107,0.899322 -10.65604,0.96308 l -9.18207,0.05765 0.12821,0.570624 c 0.65077,2.896344 3.50291,4.774746 6.907,4.5489 2.09614,-0.13907 4.03935,-0.846777 5.48453,-1.997445 1.15851,-0.922415 1.39354,-0.865892 2.86539,0.689116 2.71265,2.865914 2.84005,3.229452 1.56466,4.464771 -1.5409,1.492475 -4.20188,2.972456 -6.37881,3.54775 -1.31848,0.348436 -4.46733,0.490358 -5.91701,0.266686 z m 7.43235,-18.742161 c 0,-0.07272 -0.33415,-0.631817 -0.74255,-1.242426 -1.3409,-2.004819 -2.92061,-2.87101 -5.24966,-2.878517 -1.18719,-0.0038 -1.38763,0.03801 -2.27502,0.474874 -1.15231,0.56728 -2.58288,1.930762 -3.17894,3.029875 l -0.40588,0.748421 h 5.92602 c 3.49324,0 5.92603,-0.05428 5.92603,-0.132227 z"
       id="path26" />
  </g>
</svg>
